<svg width="118" height="147" viewBox="0 0 118 147" fill="none" xmlns="http://www.w3.org/2000/svg">
<line x1="17" y1="39" x2="17" y2="134" stroke="white" stroke-width="2"/>
<line x1="30" y1="57.5" x2="87" y2="57.5" stroke="white" stroke-width="3"/>
<line x1="25" y1="17.5" x2="102" y2="17.5" stroke="white"/>
<line x1="27" y1="13.5" x2="104" y2="13.5" stroke="white"/>
<line x1="29" y1="9.5" x2="106" y2="9.5" stroke="white"/>
<path d="M115.094 3H31.5489M115.094 3L108.953 25.6872M115.094 3V132.308C115.094 134.529 114.354 136.687 112.992 138.441L108.953 143.642M3 14.579C5.55715 3 21.3546 3 25.408 3H31.5489M3 14.579C3 25.6872 13.6204 25.4676 18.0823 25.6872H26.7546M3 14.579C3 51.481 3 126.791 3 135.734C3 144.524 9.22143 143.642 15.8199 143.642H108.953M108.953 25.6872V143.642M108.953 25.6872H26.7546M31.5489 3C25.4217 3 9.98432 4.27795 9.98432 14.579C9.98432 21.8316 20.6274 25.6872 26.7546 25.6872" stroke="white" stroke-width="5"/>
</svg>
