<svg width="595" height="148" viewBox="0 0 595 148" fill="none" xmlns="http://www.w3.org/2000/svg">
<path d="M123.887 32.9062H146.982C151.898 32.9062 156.162 33.7038 159.775 35.2988C163.389 36.8939 166.172 39.2539 168.125 42.3789C170.111 45.4714 171.104 49.2799 171.104 53.8047C171.104 57.1576 170.387 60.2012 168.955 62.9355C167.555 65.6699 165.618 67.9648 163.145 69.8203C160.671 71.6432 157.806 72.8965 154.551 73.5801L152.451 74.3613H127.793L127.695 69.2344H148.35C152.061 69.2344 155.153 68.5182 157.627 67.0859C160.101 65.6536 161.956 63.7656 163.193 61.4219C164.463 59.0456 165.098 56.5065 165.098 53.8047C165.098 50.582 164.398 47.7988 162.998 45.4551C161.631 43.0788 159.596 41.2559 156.895 39.9863C154.193 38.7168 150.889 38.082 146.982 38.082H129.893V104H123.887V32.9062ZM167.783 104L149.375 72.2129L155.82 72.1641L174.18 103.365V104H167.783ZM194.932 32.9062V104H188.926V32.9062H194.932ZM236.631 32.9062V104H230.674V32.9062H236.631ZM260.996 32.9062V38.082H206.357V32.9062H260.996ZM312.021 86.5195C312.021 84.5664 311.696 82.8249 311.045 81.2949C310.394 79.765 309.32 78.3978 307.822 77.1934C306.357 75.9564 304.372 74.8171 301.865 73.7754C299.391 72.7012 296.299 71.6432 292.588 70.6016C289.04 69.5924 285.833 68.4857 282.969 67.2812C280.104 66.0768 277.646 64.6934 275.596 63.1309C273.577 61.5684 272.031 59.7454 270.957 57.6621C269.883 55.5462 269.346 53.0885 269.346 50.2891C269.346 47.5547 269.932 45.0645 271.104 42.8184C272.275 40.5723 273.919 38.6354 276.035 37.0078C278.184 35.3802 280.706 34.127 283.604 33.248C286.533 32.3691 289.74 31.9297 293.223 31.9297C298.203 31.9297 302.5 32.8737 306.113 34.7617C309.759 36.6497 312.575 39.2051 314.561 42.4277C316.579 45.6178 317.588 49.1986 317.588 53.1699H311.582C311.582 50.0775 310.85 47.3268 309.385 44.918C307.952 42.4766 305.869 40.5723 303.135 39.2051C300.433 37.8053 297.129 37.1055 293.223 37.1055C289.316 37.1055 286.029 37.7077 283.359 38.9121C280.723 40.084 278.721 41.6628 277.354 43.6484C276.019 45.6016 275.352 47.7826 275.352 50.1914C275.352 51.8841 275.677 53.4466 276.328 54.8789C276.979 56.2786 278.037 57.597 279.502 58.834C280.999 60.0384 282.969 61.1777 285.41 62.252C287.852 63.2936 290.863 64.2865 294.443 65.2305C298.219 66.2721 301.572 67.4277 304.502 68.6973C307.432 69.9668 309.906 71.4316 311.924 73.0918C313.942 74.7194 315.472 76.6237 316.514 78.8047C317.555 80.9857 318.076 83.5247 318.076 86.4219C318.076 89.319 317.458 91.9232 316.221 94.2344C315.016 96.513 313.307 98.4499 311.094 100.045C308.913 101.64 306.325 102.861 303.33 103.707C300.368 104.553 297.129 104.977 293.613 104.977C290.456 104.977 287.314 104.57 284.189 103.756C281.064 102.942 278.2 101.689 275.596 99.9961C273.024 98.2708 270.957 96.0573 269.395 93.3555C267.865 90.6536 267.1 87.431 267.1 83.6875H273.057C273.057 86.6823 273.659 89.2051 274.863 91.2559C276.068 93.3066 277.663 94.9668 279.648 96.2363C281.667 97.5059 283.88 98.4336 286.289 99.0195C288.73 99.5729 291.172 99.8496 293.613 99.8496C297.357 99.8496 300.596 99.2962 303.33 98.1895C306.097 97.0827 308.229 95.5365 309.727 93.5508C311.257 91.5326 312.021 89.1888 312.021 86.5195ZM355.527 69.8203H335.508L335.41 64.7422H352.646C356.162 64.7422 359.157 64.2376 361.631 63.2285C364.105 62.2194 365.977 60.722 367.246 58.7363C368.548 56.7181 369.199 54.2441 369.199 51.3145C369.199 48.3197 368.564 45.8457 367.295 43.8926C366.025 41.9069 364.121 40.4421 361.582 39.498C359.043 38.554 355.853 38.082 352.012 38.082H337.07V104H331.064V32.9062H352.012C355.625 32.9062 358.864 33.2643 361.729 33.9805C364.593 34.6966 367.035 35.8197 369.053 37.3496C371.071 38.8796 372.601 40.8164 373.643 43.1602C374.717 45.4714 375.254 48.2383 375.254 51.4609C375.254 54.3906 374.603 57.0436 373.301 59.4199C371.999 61.7637 370.16 63.6842 367.783 65.1816C365.439 66.6465 362.624 67.5579 359.336 67.916L355.527 69.8203ZM355.088 104H333.604L336.68 98.873H355.088C358.604 98.873 361.598 98.2871 364.072 97.1152C366.579 95.9108 368.499 94.2018 369.834 91.9883C371.169 89.7747 371.836 87.138 371.836 84.0781C371.836 81.3763 371.25 78.9512 370.078 76.8027C368.906 74.6543 367.116 72.9616 364.707 71.7246C362.298 70.4551 359.238 69.8203 355.527 69.8203H343.076L343.174 64.7422H360.801L361.875 66.5488C365.065 66.8743 367.848 67.8672 370.225 69.5273C372.633 71.1549 374.489 73.222 375.791 75.7285C377.126 78.235 377.793 80.9857 377.793 83.9805C377.793 88.2773 376.833 91.9232 374.912 94.918C373.024 97.8802 370.371 100.143 366.953 101.705C363.568 103.235 359.613 104 355.088 104ZM444.883 64.6445V72.2617C444.883 77.2422 444.232 81.7507 442.93 85.7871C441.66 89.791 439.805 93.2253 437.363 96.0898C434.954 98.9544 432.057 101.152 428.672 102.682C425.286 104.212 421.478 104.977 417.246 104.977C413.112 104.977 409.336 104.212 405.918 102.682C402.533 101.152 399.619 98.9544 397.178 96.0898C394.736 93.2253 392.848 89.791 391.514 85.7871C390.179 81.7507 389.512 77.2422 389.512 72.2617V64.6445C389.512 59.6641 390.163 55.1719 391.465 51.168C392.799 47.1315 394.688 43.681 397.129 40.8164C399.57 37.9518 402.484 35.7546 405.869 34.2246C409.255 32.6947 413.014 31.9297 417.148 31.9297C421.38 31.9297 425.189 32.6947 428.574 34.2246C431.96 35.7546 434.873 37.9518 437.314 40.8164C439.756 43.681 441.628 47.1315 442.93 51.168C444.232 55.1719 444.883 59.6641 444.883 64.6445ZM438.926 72.2617V64.5469C438.926 60.3477 438.438 56.5716 437.461 53.2188C436.517 49.8659 435.101 47.0013 433.213 44.625C431.357 42.2487 429.079 40.4258 426.377 39.1562C423.675 37.8867 420.599 37.252 417.148 37.252C413.796 37.252 410.785 37.8867 408.115 39.1562C405.446 40.4258 403.167 42.2487 401.279 44.625C399.424 47.0013 397.992 49.8659 396.982 53.2188C396.006 56.5716 395.518 60.3477 395.518 64.5469V72.2617C395.518 76.4935 396.006 80.3021 396.982 83.6875C397.992 87.0404 399.44 89.9212 401.328 92.3301C403.216 94.7064 405.495 96.5293 408.164 97.7988C410.866 99.0684 413.893 99.7031 417.246 99.7031C420.729 99.7031 423.805 99.0684 426.475 97.7988C429.144 96.5293 431.406 94.7064 433.262 92.3301C435.117 89.9212 436.517 87.0404 437.461 83.6875C438.438 80.3021 438.926 76.4935 438.926 72.2617ZM512.559 64.6445V72.2617C512.559 77.2422 511.908 81.7507 510.605 85.7871C509.336 89.791 507.48 93.2253 505.039 96.0898C502.63 98.9544 499.733 101.152 496.348 102.682C492.962 104.212 489.154 104.977 484.922 104.977C480.788 104.977 477.012 104.212 473.594 102.682C470.208 101.152 467.295 98.9544 464.854 96.0898C462.412 93.2253 460.524 89.791 459.189 85.7871C457.855 81.7507 457.188 77.2422 457.188 72.2617V64.6445C457.188 59.6641 457.839 55.1719 459.141 51.168C460.475 47.1315 462.363 43.681 464.805 40.8164C467.246 37.9518 470.16 35.7546 473.545 34.2246C476.93 32.6947 480.69 31.9297 484.824 31.9297C489.056 31.9297 492.865 32.6947 496.25 34.2246C499.635 35.7546 502.549 37.9518 504.99 40.8164C507.432 43.681 509.303 47.1315 510.605 51.168C511.908 55.1719 512.559 59.6641 512.559 64.6445ZM506.602 72.2617V64.5469C506.602 60.3477 506.113 56.5716 505.137 53.2188C504.193 49.8659 502.777 47.0013 500.889 44.625C499.033 42.2487 496.755 40.4258 494.053 39.1562C491.351 37.8867 488.275 37.252 484.824 37.252C481.471 37.252 478.46 37.8867 475.791 39.1562C473.122 40.4258 470.843 42.2487 468.955 44.625C467.1 47.0013 465.667 49.8659 464.658 53.2188C463.682 56.5716 463.193 60.3477 463.193 64.5469V72.2617C463.193 76.4935 463.682 80.3021 464.658 83.6875C465.667 87.0404 467.116 89.9212 469.004 92.3301C470.892 94.7064 473.171 96.5293 475.84 97.7988C478.542 99.0684 481.569 99.7031 484.922 99.7031C488.405 99.7031 491.481 99.0684 494.15 97.7988C496.82 96.5293 499.082 94.7064 500.938 92.3301C502.793 89.9212 504.193 87.0404 505.137 83.6875C506.113 80.3021 506.602 76.4935 506.602 72.2617ZM533.75 32.9062V104H527.744V32.9062H533.75ZM577.695 32.9062L547.031 65.4746L531.602 80.6602L531.016 73.9707L543.418 61.0801L570.176 32.9062H577.695ZM572.715 104L542.783 67.4766L546.396 62.6426L579.99 104H572.715Z" fill="black"/>
<path d="M1 23.303L0.997951 23.3076L0.995 23.3141V140.94H0.987116L0.99806 140.945L16.577 147.505L16.5789 147.5L16.5809 147.495L16.5839 147.488V30.3H16.5912L16.581 30.2954L1.00205 23.2984L1 23.303Z" fill="#FF0211" stroke="#FF0211" stroke-width="0.01"/>
<path d="M16.5776 30.2952L16.5739 30.2827V30.3V147.5H16.5789H16.5839H16.598H16.598L97.0013 125.639L97.005 125.653V125.634V7.12239H97H96.995H96.9819L16.5776 30.2952Z" fill="#FF0211" stroke="#FF0211" stroke-width="0.01"/>
<line y1="-0.5" x2="84.4458" y2="-0.5" transform="matrix(0.961126 -0.27611 0.257342 0.96632 12.7895 29.8627)" stroke="#FF0211"/>
<line y1="-0.5" x2="82.7569" y2="-0.5" transform="matrix(0.961126 -0.27611 0.257342 0.96632 1 23.85)" stroke="#FF0211"/>
<line y1="-0.5" x2="82.7569" y2="-0.5" transform="matrix(0.961126 -0.27611 0.257342 0.96632 3.52631 25.4896)" stroke="#FF0211"/>
<line y1="-0.5" x2="84.4458" y2="-0.5" transform="matrix(0.961126 -0.27611 0.257342 0.96632 4.36842 27.5012)" stroke="#FF0211"/>
<line y1="-0.5" x2="84.4458" y2="-0.5" transform="matrix(0.961126 -0.27611 0.257342 0.96632 8.57895 28.6895)" stroke="#FF0211"/>
</svg>
