<svg width="562" height="169" viewBox="0 0 562 169" fill="none" xmlns="http://www.w3.org/2000/svg">
<path d="M1 26.5L0.998015 26.5046L0.995 26.5116V161H0.986692L0.998121 161.005L19.4981 168.505L19.5 168.5L19.5019 168.495L19.505 168.488V34.5H19.5126L19.502 34.4954L1.00198 26.4954L1 26.5Z" fill="#FF0211" stroke="#FF0211" stroke-width="0.01"/>
<path d="M19.4987 34.4952L19.495 34.482V34.5V168.5H19.5H19.505H19.5197L115.001 143.505L115.005 143.519V143.5V8H115H114.995H114.981L19.4987 34.4952Z" fill="#FF0211" stroke="#FF0211" stroke-width="0.01"/>
<path d="M149.554 54.5703H169.185C173.363 54.5703 176.988 55.2482 180.059 56.604C183.13 57.9598 185.496 59.9658 187.156 62.6221C188.844 65.2507 189.688 68.488 189.688 72.334C189.688 75.1839 189.079 77.771 187.862 80.0952C186.672 82.4194 185.026 84.3701 182.923 85.9473C180.82 87.4967 178.385 88.562 175.618 89.1431L173.833 89.8071H152.874L152.791 85.4492H170.347C173.501 85.4492 176.13 84.8405 178.233 83.623C180.336 82.4056 181.913 80.8008 182.964 78.8086C184.043 76.7887 184.583 74.6305 184.583 72.334C184.583 69.5947 183.988 67.229 182.798 65.2368C181.636 63.217 179.907 61.6675 177.61 60.5884C175.314 59.5093 172.505 58.9697 169.185 58.9697H154.659V115H149.554V54.5703ZM186.866 115L171.219 87.981L176.697 87.9395L192.303 114.46V115H186.866ZM209.942 54.5703V115H204.837V54.5703H209.942ZM245.386 54.5703V115H240.323V54.5703H245.386ZM266.097 54.5703V58.9697H219.654V54.5703H266.097ZM309.468 100.142C309.468 98.4814 309.192 97.0011 308.638 95.7007C308.085 94.4002 307.172 93.2381 305.899 92.2144C304.654 91.1629 302.966 90.1945 300.835 89.3091C298.733 88.396 296.104 87.4967 292.95 86.6113C289.934 85.7536 287.208 84.8128 284.773 83.7891C282.339 82.7653 280.25 81.5894 278.506 80.2612C276.791 78.9331 275.477 77.3836 274.563 75.6128C273.65 73.8143 273.194 71.7253 273.194 69.3457C273.194 67.0215 273.692 64.9048 274.688 62.9956C275.684 61.0864 277.081 59.4401 278.88 58.0566C280.706 56.6732 282.85 55.6079 285.313 54.8608C287.803 54.1138 290.529 53.7402 293.489 53.7402C297.723 53.7402 301.375 54.5426 304.446 56.1475C307.545 57.7523 309.939 59.9243 311.626 62.6636C313.342 65.3752 314.2 68.4188 314.2 71.7944H309.095C309.095 69.1659 308.472 66.8278 307.227 64.7803C306.01 62.7051 304.239 61.0864 301.915 59.9243C299.618 58.7345 296.81 58.1396 293.489 58.1396C290.169 58.1396 287.374 58.6515 285.105 59.6753C282.864 60.6714 281.163 62.0133 280 63.7012C278.866 65.3613 278.299 67.2152 278.299 69.2627C278.299 70.7015 278.576 72.0296 279.129 73.2471C279.682 74.4368 280.582 75.5575 281.827 76.6089C283.099 77.6326 284.773 78.6011 286.849 79.5142C288.924 80.3996 291.483 81.2435 294.527 82.0459C297.736 82.9313 300.586 83.9136 303.077 84.9927C305.567 86.0718 307.67 87.3169 309.385 88.728C311.101 90.1115 312.401 91.7301 313.287 93.584C314.172 95.4378 314.615 97.596 314.615 100.059C314.615 102.521 314.089 104.735 313.038 106.699C312.014 108.636 310.561 110.282 308.68 111.638C306.826 112.994 304.626 114.032 302.081 114.751C299.563 115.47 296.81 115.83 293.821 115.83C291.137 115.83 288.467 115.484 285.811 114.792C283.155 114.101 280.72 113.035 278.506 111.597C276.32 110.13 274.563 108.249 273.235 105.952C271.935 103.656 271.285 100.916 271.285 97.7344H276.348C276.348 100.28 276.86 102.424 277.884 104.167C278.908 105.911 280.263 107.322 281.951 108.401C283.667 109.48 285.548 110.269 287.596 110.767C289.671 111.237 291.746 111.472 293.821 111.472C297.003 111.472 299.756 111.002 302.081 110.061C304.432 109.12 306.245 107.806 307.518 106.118C308.818 104.403 309.468 102.41 309.468 100.142ZM346.448 85.9473H329.432L329.349 81.6309H344C346.988 81.6309 349.533 81.202 351.636 80.3442C353.739 79.4865 355.33 78.2137 356.409 76.5259C357.516 74.8104 358.069 72.7075 358.069 70.2173C358.069 67.6717 357.53 65.5688 356.451 63.9087C355.372 62.2209 353.753 60.9757 351.595 60.1733C349.437 59.3709 346.725 58.9697 343.46 58.9697H330.76V115H325.655V54.5703H343.46C346.531 54.5703 349.284 54.8747 351.719 55.4834C354.154 56.0921 356.229 57.0467 357.945 58.3472C359.66 59.6476 360.961 61.2939 361.846 63.2861C362.759 65.2507 363.216 67.6025 363.216 70.3418C363.216 72.832 362.662 75.0871 361.556 77.1069C360.449 79.0991 358.886 80.7316 356.866 82.0044C354.874 83.2495 352.48 84.0243 349.686 84.3286L346.448 85.9473ZM346.075 115H327.813L330.428 110.642H346.075C349.063 110.642 351.609 110.144 353.711 109.148C355.842 108.124 357.474 106.672 358.609 104.79C359.743 102.909 360.311 100.667 360.311 98.0664C360.311 95.7699 359.812 93.7085 358.816 91.8823C357.82 90.0562 356.299 88.6174 354.251 87.5659C352.203 86.4868 349.603 85.9473 346.448 85.9473H335.865L335.948 81.6309H350.931L351.844 83.1665C354.555 83.4432 356.921 84.2871 358.941 85.6982C360.988 87.0817 362.566 88.8387 363.672 90.9692C364.807 93.0998 365.374 95.4378 365.374 97.9834C365.374 101.636 364.558 104.735 362.925 107.28C361.32 109.798 359.065 111.721 356.16 113.049C353.283 114.35 349.921 115 346.075 115ZM422.4 81.5479V88.0225C422.4 92.2559 421.847 96.0881 420.74 99.519C419.661 102.922 418.084 105.841 416.009 108.276C413.961 110.711 411.499 112.579 408.621 113.879C405.743 115.18 402.506 115.83 398.909 115.83C395.395 115.83 392.186 115.18 389.28 113.879C386.403 112.579 383.926 110.711 381.851 108.276C379.776 105.841 378.171 102.922 377.037 99.519C375.902 96.0881 375.335 92.2559 375.335 88.0225V81.5479C375.335 77.3145 375.888 73.4961 376.995 70.0928C378.13 66.6618 379.734 63.7288 381.81 61.2939C383.885 58.859 386.361 56.9914 389.239 55.6909C392.116 54.3905 395.312 53.7402 398.826 53.7402C402.423 53.7402 405.66 54.3905 408.538 55.6909C411.416 56.9914 413.892 58.859 415.967 61.2939C418.042 63.7288 419.633 66.6618 420.74 70.0928C421.847 73.4961 422.4 77.3145 422.4 81.5479ZM417.337 88.0225V81.4648C417.337 77.8955 416.922 74.6859 416.092 71.8359C415.289 68.986 414.086 66.5511 412.481 64.5312C410.904 62.5114 408.967 60.9619 406.67 59.8828C404.374 58.8037 401.759 58.2642 398.826 58.2642C395.976 58.2642 393.417 58.8037 391.148 59.8828C388.879 60.9619 386.942 62.5114 385.337 64.5312C383.76 66.5511 382.543 68.986 381.685 71.8359C380.855 74.6859 380.44 77.8955 380.44 81.4648V88.0225C380.44 91.6195 380.855 94.8568 381.685 97.7344C382.543 100.584 383.774 103.033 385.379 105.081C386.984 107.1 388.921 108.65 391.189 109.729C393.486 110.808 396.059 111.348 398.909 111.348C401.87 111.348 404.485 110.808 406.753 109.729C409.022 108.65 410.945 107.1 412.522 105.081C414.1 103.033 415.289 100.584 416.092 97.7344C416.922 94.8568 417.337 91.6195 417.337 88.0225ZM479.925 81.5479V88.0225C479.925 92.2559 479.371 96.0881 478.265 99.519C477.186 102.922 475.608 105.841 473.533 108.276C471.486 110.711 469.023 112.579 466.146 113.879C463.268 115.18 460.031 115.83 456.434 115.83C452.92 115.83 449.71 115.18 446.805 113.879C443.927 112.579 441.451 110.711 439.375 108.276C437.3 105.841 435.695 102.922 434.561 99.519C433.427 96.0881 432.859 92.2559 432.859 88.0225V81.5479C432.859 77.3145 433.413 73.4961 434.52 70.0928C435.654 66.6618 437.259 63.7288 439.334 61.2939C441.409 58.859 443.886 56.9914 446.763 55.6909C449.641 54.3905 452.837 53.7402 456.351 53.7402C459.948 53.7402 463.185 54.3905 466.062 55.6909C468.94 56.9914 471.417 58.859 473.492 61.2939C475.567 63.7288 477.158 66.6618 478.265 70.0928C479.371 73.4961 479.925 77.3145 479.925 81.5479ZM474.861 88.0225V81.4648C474.861 77.8955 474.446 74.6859 473.616 71.8359C472.814 68.986 471.61 66.5511 470.005 64.5312C468.428 62.5114 466.491 60.9619 464.195 59.8828C461.898 58.8037 459.284 58.2642 456.351 58.2642C453.501 58.2642 450.941 58.8037 448.672 59.8828C446.403 60.9619 444.467 62.5114 442.862 64.5312C441.285 66.5511 440.067 68.986 439.209 71.8359C438.379 74.6859 437.964 77.8955 437.964 81.4648V88.0225C437.964 91.6195 438.379 94.8568 439.209 97.7344C440.067 100.584 441.299 103.033 442.903 105.081C444.508 107.1 446.445 108.65 448.714 109.729C451.01 110.808 453.584 111.348 456.434 111.348C459.394 111.348 462.009 110.808 464.278 109.729C466.547 108.65 468.47 107.1 470.047 105.081C471.624 103.033 472.814 100.584 473.616 97.7344C474.446 94.8568 474.861 91.6195 474.861 88.0225ZM497.938 54.5703V115H492.833V54.5703H497.938ZM535.291 54.5703L509.227 82.2534L496.111 95.1611L495.613 89.4751L506.155 78.5181L528.899 54.5703H535.291ZM531.058 115L505.616 83.9551L508.687 79.8462L537.242 115H531.058Z" fill="black"/>
<line x1="14.8667" y1="33.5181" x2="111.248" y2="6.85949" stroke="#FF0211"/>
<line x1="0.866707" y1="26.6435" x2="95.3202" y2="0.51809" stroke="#FF0211"/>
<line x1="3.86671" y1="28.5181" x2="98.3202" y2="2.39266" stroke="#FF0211"/>
<line x1="4.86671" y1="30.8181" x2="101.248" y2="4.15949" stroke="#FF0211"/>
<line x1="9.86671" y1="32.1767" x2="106.248" y2="5.51809" stroke="#FF0211"/>
</svg>
