<svg width="562" height="162" viewBox="0 0 562 162" fill="none" xmlns="http://www.w3.org/2000/svg">
<path d="M1 19.5L0.998015 19.5046L0.995 19.5116V154H0.986692L0.998121 154.005L19.4981 161.505L19.5 161.5L19.5019 161.495L19.505 161.488V27.5H19.5126L19.502 27.4954L1.00198 19.4954L1 19.5Z" fill="#FF0211" stroke="#FF0211" stroke-width="0.01"/>
<path d="M19.4987 27.4952L19.495 27.482V27.5V161.5H19.5H19.505H19.5197L115.001 136.505L115.005 136.519V136.5V1H115H114.995H114.981L19.4987 27.4952Z" fill="#FF0211" stroke="#FF0211" stroke-width="0.01"/>
<path d="M149.554 47.5703H169.185C173.363 47.5703 176.988 48.2482 180.059 49.604C183.13 50.9598 185.496 52.9658 187.156 55.6221C188.844 58.2507 189.688 61.488 189.688 65.334C189.688 68.1839 189.079 70.771 187.862 73.0952C186.672 75.4194 185.026 77.3701 182.923 78.9473C180.82 80.4967 178.385 81.562 175.618 82.1431L173.833 82.8071H152.874L152.791 78.4492H170.347C173.501 78.4492 176.13 77.8405 178.233 76.623C180.336 75.4056 181.913 73.8008 182.964 71.8086C184.043 69.7887 184.583 67.6305 184.583 65.334C184.583 62.5947 183.988 60.229 182.798 58.2368C181.636 56.217 179.907 54.6675 177.61 53.5884C175.314 52.5093 172.505 51.9697 169.185 51.9697H154.659V108H149.554V47.5703ZM186.866 108L171.219 80.981L176.697 80.9395L192.303 107.46V108H186.866ZM209.942 47.5703V108H204.837V47.5703H209.942ZM245.386 47.5703V108H240.323V47.5703H245.386ZM266.097 47.5703V51.9697H219.654V47.5703H266.097ZM309.468 93.1416C309.468 91.4814 309.192 90.0011 308.638 88.7007C308.085 87.4002 307.172 86.2381 305.899 85.2144C304.654 84.1629 302.966 83.1945 300.835 82.3091C298.733 81.396 296.104 80.4967 292.95 79.6113C289.934 78.7536 287.208 77.8128 284.773 76.7891C282.339 75.7653 280.25 74.5894 278.506 73.2612C276.791 71.9331 275.477 70.3836 274.563 68.6128C273.65 66.8143 273.194 64.7253 273.194 62.3457C273.194 60.0215 273.692 57.9048 274.688 55.9956C275.684 54.0864 277.081 52.4401 278.88 51.0566C280.706 49.6732 282.85 48.6079 285.313 47.8608C287.803 47.1138 290.529 46.7402 293.489 46.7402C297.723 46.7402 301.375 47.5426 304.446 49.1475C307.545 50.7523 309.939 52.9243 311.626 55.6636C313.342 58.3752 314.2 61.4188 314.2 64.7944H309.095C309.095 62.1659 308.472 59.8278 307.227 57.7803C306.01 55.7051 304.239 54.0864 301.915 52.9243C299.618 51.7345 296.81 51.1396 293.489 51.1396C290.169 51.1396 287.374 51.6515 285.105 52.6753C282.864 53.6714 281.163 55.0133 280 56.7012C278.866 58.3613 278.299 60.2152 278.299 62.2627C278.299 63.7015 278.576 65.0296 279.129 66.2471C279.682 67.4368 280.582 68.5575 281.827 69.6089C283.099 70.6326 284.773 71.6011 286.849 72.5142C288.924 73.3996 291.483 74.2435 294.527 75.0459C297.736 75.9313 300.586 76.9136 303.077 77.9927C305.567 79.0718 307.67 80.3169 309.385 81.728C311.101 83.1115 312.401 84.7301 313.287 86.584C314.172 88.4378 314.615 90.596 314.615 93.0586C314.615 95.5212 314.089 97.7347 313.038 99.6992C312.014 101.636 310.561 103.282 308.68 104.638C306.826 105.994 304.626 107.032 302.081 107.751C299.563 108.47 296.81 108.83 293.821 108.83C291.137 108.83 288.467 108.484 285.811 107.792C283.155 107.101 280.72 106.035 278.506 104.597C276.32 103.13 274.563 101.249 273.235 98.9521C271.935 96.6556 271.285 93.9163 271.285 90.7344H276.348C276.348 93.2799 276.86 95.4243 277.884 97.1675C278.908 98.9106 280.263 100.322 281.951 101.401C283.667 102.48 285.548 103.269 287.596 103.767C289.671 104.237 291.746 104.472 293.821 104.472C297.003 104.472 299.756 104.002 302.081 103.061C304.432 102.12 306.245 100.806 307.518 99.1182C308.818 97.4027 309.468 95.4105 309.468 93.1416ZM346.448 78.9473H329.432L329.349 74.6309H344C346.988 74.6309 349.533 74.202 351.636 73.3442C353.739 72.4865 355.33 71.2137 356.409 69.5259C357.516 67.8104 358.069 65.7075 358.069 63.2173C358.069 60.6717 357.53 58.5688 356.451 56.9087C355.372 55.2209 353.753 53.9757 351.595 53.1733C349.437 52.3709 346.725 51.9697 343.46 51.9697H330.76V108H325.655V47.5703H343.46C346.531 47.5703 349.284 47.8747 351.719 48.4834C354.154 49.0921 356.229 50.0467 357.945 51.3472C359.66 52.6476 360.961 54.2939 361.846 56.2861C362.759 58.2507 363.216 60.6025 363.216 63.3418C363.216 65.832 362.662 68.0871 361.556 70.1069C360.449 72.0991 358.886 73.7316 356.866 75.0044C354.874 76.2495 352.48 77.0243 349.686 77.3286L346.448 78.9473ZM346.075 108H327.813L330.428 103.642H346.075C349.063 103.642 351.609 103.144 353.711 102.148C355.842 101.124 357.474 99.6715 358.609 97.79C359.743 95.9085 360.311 93.6673 360.311 91.0664C360.311 88.7699 359.812 86.7085 358.816 84.8823C357.82 83.0562 356.299 81.6174 354.251 80.5659C352.203 79.4868 349.603 78.9473 346.448 78.9473H335.865L335.948 74.6309H350.931L351.844 76.1665C354.555 76.4432 356.921 77.2871 358.941 78.6982C360.988 80.0817 362.566 81.8387 363.672 83.9692C364.807 86.0998 365.374 88.4378 365.374 90.9834C365.374 94.6357 364.558 97.7347 362.925 100.28C361.32 102.798 359.065 104.721 356.16 106.049C353.283 107.35 349.921 108 346.075 108ZM422.4 74.5479V81.0225C422.4 85.2559 421.847 89.0881 420.74 92.519C419.661 95.9224 418.084 98.8415 416.009 101.276C413.961 103.711 411.499 105.579 408.621 106.879C405.743 108.18 402.506 108.83 398.909 108.83C395.395 108.83 392.186 108.18 389.28 106.879C386.403 105.579 383.926 103.711 381.851 101.276C379.776 98.8415 378.171 95.9224 377.037 92.519C375.902 89.0881 375.335 85.2559 375.335 81.0225V74.5479C375.335 70.3145 375.888 66.4961 376.995 63.0928C378.13 59.6618 379.734 56.7288 381.81 54.2939C383.885 51.859 386.361 49.9914 389.239 48.6909C392.116 47.3905 395.312 46.7402 398.826 46.7402C402.423 46.7402 405.66 47.3905 408.538 48.6909C411.416 49.9914 413.892 51.859 415.967 54.2939C418.042 56.7288 419.633 59.6618 420.74 63.0928C421.847 66.4961 422.4 70.3145 422.4 74.5479ZM417.337 81.0225V74.4648C417.337 70.8955 416.922 67.6859 416.092 64.8359C415.289 61.986 414.086 59.5511 412.481 57.5312C410.904 55.5114 408.967 53.9619 406.67 52.8828C404.374 51.8037 401.759 51.2642 398.826 51.2642C395.976 51.2642 393.417 51.8037 391.148 52.8828C388.879 53.9619 386.942 55.5114 385.337 57.5312C383.76 59.5511 382.543 61.986 381.685 64.8359C380.855 67.6859 380.44 70.8955 380.44 74.4648V81.0225C380.44 84.6195 380.855 87.8568 381.685 90.7344C382.543 93.5843 383.774 96.033 385.379 98.0806C386.984 100.1 388.921 101.65 391.189 102.729C393.486 103.808 396.059 104.348 398.909 104.348C401.87 104.348 404.485 103.808 406.753 102.729C409.022 101.65 410.945 100.1 412.522 98.0806C414.1 96.033 415.289 93.5843 416.092 90.7344C416.922 87.8568 417.337 84.6195 417.337 81.0225ZM479.925 74.5479V81.0225C479.925 85.2559 479.371 89.0881 478.265 92.519C477.186 95.9224 475.608 98.8415 473.533 101.276C471.486 103.711 469.023 105.579 466.146 106.879C463.268 108.18 460.031 108.83 456.434 108.83C452.92 108.83 449.71 108.18 446.805 106.879C443.927 105.579 441.451 103.711 439.375 101.276C437.3 98.8415 435.695 95.9224 434.561 92.519C433.427 89.0881 432.859 85.2559 432.859 81.0225V74.5479C432.859 70.3145 433.413 66.4961 434.52 63.0928C435.654 59.6618 437.259 56.7288 439.334 54.2939C441.409 51.859 443.886 49.9914 446.763 48.6909C449.641 47.3905 452.837 46.7402 456.351 46.7402C459.948 46.7402 463.185 47.3905 466.062 48.6909C468.94 49.9914 471.417 51.859 473.492 54.2939C475.567 56.7288 477.158 59.6618 478.265 63.0928C479.371 66.4961 479.925 70.3145 479.925 74.5479ZM474.861 81.0225V74.4648C474.861 70.8955 474.446 67.6859 473.616 64.8359C472.814 61.986 471.61 59.5511 470.005 57.5312C468.428 55.5114 466.491 53.9619 464.195 52.8828C461.898 51.8037 459.284 51.2642 456.351 51.2642C453.501 51.2642 450.941 51.8037 448.672 52.8828C446.403 53.9619 444.467 55.5114 442.862 57.5312C441.285 59.5511 440.067 61.986 439.209 64.8359C438.379 67.6859 437.964 70.8955 437.964 74.4648V81.0225C437.964 84.6195 438.379 87.8568 439.209 90.7344C440.067 93.5843 441.299 96.033 442.903 98.0806C444.508 100.1 446.445 101.65 448.714 102.729C451.01 103.808 453.584 104.348 456.434 104.348C459.394 104.348 462.009 103.808 464.278 102.729C466.547 101.65 468.47 100.1 470.047 98.0806C471.624 96.033 472.814 93.5843 473.616 90.7344C474.446 87.8568 474.861 84.6195 474.861 81.0225ZM497.938 47.5703V108H492.833V47.5703H497.938ZM535.291 47.5703L509.227 75.2534L496.111 88.1611L495.613 82.4751L506.155 71.5181L528.899 47.5703H535.291ZM531.058 108L505.616 76.9551L508.687 72.8462L537.242 108H531.058Z" fill="black"/>
</svg>
